<svg width="110" height="110" viewBox="0 0 110 110" fill="none" xmlns="http://www.w3.org/2000/svg">
<path d="M54.9999 34.2222C59.9148 34.2222 63.8991 29.8445 63.8991 24.4444C63.8991 19.0443 59.9148 14.6666 54.9999 14.6666C50.085 14.6666 46.1007 19.0443 46.1007 24.4444C46.1007 29.8445 50.085 34.2222 54.9999 34.2222Z" stroke="#0079AB" stroke-width="5" stroke-miterlimit="10" stroke-linecap="round"/>
<path d="M55 74.7512V98.56C55 100.809 56.6909 102.667 58.7377 102.667H60.1171C62.1639 102.667 63.8547 100.809 63.8547 98.56V88.4889V53.8267C63.8547 50.7467 66.124 48.2534 68.9273 48.2534H82.4096H86.2807C88.1941 48.2534 89.7959 46.5423 89.7959 44.3912V44.1956C89.7959 42.0934 88.2386 40.3334 86.2807 40.3334H40.6278H23.7193C21.806 40.3334 20.2041 42.0445 20.2041 44.1956V44.3912C20.2041 46.4934 21.7615 48.2534 23.7193 48.2534H42.8526C44.6324 48.2534 46.1008 49.8667 46.1008 51.8223V66.5378V98.56C46.1008 100.809 47.7916 102.667 49.8385 102.667H51.2179C53.2647 102.667 54.9555 100.809 54.9555 98.56" stroke="#0079AB" stroke-width="5" stroke-miterlimit="10" stroke-linecap="round"/>
<mask id="path-3-inside-1_145_160" fill="white">
<path d="M0 5.00001C0 2.23858 2.23858 0 5 0H33.6735V36.6667H0V5.00001Z"/>
</mask>
<path d="M-3 5C-3 0.581722 0.581722 -3 5 -3H33.6735V3H5C3.89543 3 3 3.89543 3 5H-3ZM33.6735 36.6667H0H33.6735ZM-3 36.6667V5C-3 0.581722 0.581722 -3 5 -3V3C3.89543 3 3 3.89543 3 5V36.6667H-3ZM33.6735 0V36.6667V0Z" fill="#0079AB" mask="url(#path-3-inside-1_145_160)"/>
<mask id="path-5-inside-2_145_160" fill="white">
<path d="M76.3265 0H105C107.761 0 110 2.23858 110 5V36.6667H76.3265V0Z"/>
</mask>
<path d="M76.3265 -3H105C109.418 -3 113 0.581722 113 5H107C107 3.89543 106.105 3 105 3H76.3265V-3ZM110 36.6667H76.3265H110ZM76.3265 36.6667V0V36.6667ZM105 -3C109.418 -3 113 0.581722 113 5V36.6667H107V5C107 3.89543 106.105 3 105 3V-3Z" fill="#0079AB" mask="url(#path-5-inside-2_145_160)"/>
<mask id="path-7-inside-3_145_160" fill="white">
<path d="M76.3265 73.3334H110V105C110 107.761 107.761 110 105 110H76.3265V73.3334Z"/>
</mask>
<path d="M76.3265 73.3334H110H76.3265ZM113 105C113 109.418 109.418 113 105 113H76.3265V107H105C106.105 107 107 106.105 107 105H113ZM76.3265 110V73.3334V110ZM113 73.3334V105C113 109.418 109.418 113 105 113V107C106.105 107 107 106.105 107 105V73.3334H113Z" fill="#0079AB" mask="url(#path-7-inside-3_145_160)"/>
<mask id="path-9-inside-4_145_160" fill="white">
<path d="M0 73.3334H33.6735V110H5C2.23858 110 0 107.761 0 105V73.3334Z"/>
</mask>
<path d="M0 73.3334H33.6735H0ZM33.6735 113H5C0.581722 113 -3 109.418 -3 105H3C3 106.105 3.89543 107 5 107H33.6735V113ZM5 113C0.581722 113 -3 109.418 -3 105V73.3334H3V105C3 106.105 3.89543 107 5 107V113ZM33.6735 73.3334V110V73.3334Z" fill="#0079AB" mask="url(#path-9-inside-4_145_160)"/>
</svg>
